<svg xmlns="http://www.w3.org/2000/svg" viewBox="0 0 41.96 47.65" id="roles-permission">
  <path fill="#003566" d="M8.74 33.77 3.15 44.34a.62.62 0 0 0 .67.89l5.81-1.21a.6.6 0 0 1 .65.29l1.84 3a.61.61 0 0 0 1.07 0l5.68-10.69m13.76-2.85 5.56 10.57a.61.61 0 0 1-.66.89l-5.82-1.21a.6.6 0 0 0-.65.29l-1.84 3a.61.61 0 0 1-1.07 0l-5.21-10.69"></path>
  <path fill="#ffd60a" d="M39.65 17.17a5.2 5.2 0 0 1-2.46-2.65c0-.13-.1-.26-.16-.39a5.36 5.36 0 0 1-.15-3.68 4.29 4.29 0 0 0-5.37-5.37 5.36 5.36 0 0 1-3.68-.15l-.39-.16a5.2 5.2 0 0 1-2.65-2.46 4.3 4.3 0 0 0-7.62 0 5.17 5.17 0 0 1-2.65 2.46l-.39.16a5.33 5.33 0 0 1-3.67.15 4.29 4.29 0 0 0-5.38 5.37 5.36 5.36 0 0 1-.15 3.68c-.06.13-.11.26-.16.39a5.2 5.2 0 0 1-2.46 2.65 4.3 4.3 0 0 0 0 7.62 5.17 5.17 0 0 1 2.46 2.65c.05.13.1.26.16.39a5.33 5.33 0 0 1 .15 3.67 4.3 4.3 0 0 0 5.38 5.38 5.33 5.33 0 0 1 3.67.15l.39.16a5.17 5.17 0 0 1 2.65 2.46 4.3 4.3 0 0 0 7.62 0 5.2 5.2 0 0 1 2.65-2.46l.39-.16a5.36 5.36 0 0 1 3.68-.15 4.3 4.3 0 0 0 5.37-5.38 5.33 5.33 0 0 1 .15-3.67c.06-.13.11-.26.16-.39a5.17 5.17 0 0 1 2.46-2.65 4.3 4.3 0 0 0 0-7.62ZM29.57 17 19.49 27.08a1.5 1.5 0 0 1-2.12 0l-5-5a1.503 1.503 0 0 1 2.13-2.12l3.91 3.92 9-9A1.503 1.503 0 0 1 29.54 17Z"></path>
</svg>
